Coordinates
version=1
nRows=34
nColumns=38
inDegrees=no

Units are S.I. units (second, meters, Newtons, ...)
If the header above contains a line with 'inDegrees', this indicates whether rotational values are in degrees (yes) or radians (no).

endheader
time	pelvis_tilt	pelvis_list	pelvis_rotation	pelvis_tx	pelvis_ty	pelvis_tz	hip_flexion_r	hip_adduction_r	hip_rotation_r	knee_angle_r	ankle_angle_r	subtalar_angle_r	mtp_angle_r	hip_flexion_l	hip_adduction_l	hip_rotation_l	knee_angle_l	ankle_angle_l	subtalar_angle_l	mtp_angle_l	lumbar_extension	lumbar_bending	lumbar_rotation	arm_flex_r	arm_add_r	arm_rot_r	elbow_flex_r	pro_sup_r	wrist_flex_r	wrist_dev_r	arm_flex_l	arm_add_l	arm_rot_l	elbow_flex_l	pro_sup_l	wrist_flex_l	wrist_dev_l
0.55	2.89209	1.53562	1.7431	0.784206	1.14207	1.04973	-0.0997933	0.00787075	-0.0719555	0.0549595	-0.0190807	0	0	0.3708	-0.0845104	-0.262612	0.624772	-0.0589719	0	0	-0.339427	0.0497651	0.129593	-0.233774	-0.441611	0.233385	0.756592	0.866838	0	0	0.0532058	-0.55853	0.616371	0.587646	1.21264	0	0
0.56	2.74525	1.52164	1.88473	0.783263	1.12984	1.04647	-0.104216	-0.0226046	-0.0686523	0.0446731	-0.0198881	0	0	0.382963	-0.0701181	-0.272364	0.549619	-0.0798104	0	0	-0.325676	0.0367865	0.130338	-0.238838	-0.440449	0.228879	0.76236	0.867209	0	0	0.049149	-0.56285	0.619592	0.590027	1.21062	0	0
0.57	2.76474	1.52138	1.86037	0.782292	1.11741	1.04527	-0.120114	-0.022138	-0.073872	0.0378646	-0.0193837	0	0	0.379915	-0.0669561	-0.284928	0.469326	-0.103329	0	0	-0.327122	0.0348309	0.133672	-0.237729	-0.441994	0.228503	0.764612	0.867812	0	0	0.050329	-0.562409	0.624311	0.586649	1.20826	0	0
0.58	2.79183	1.52062	1.82744	0.781309	1.10497	1.04376	-0.135505	-0.0221363	-0.0744119	0.0301706	-0.018672	0	0	0.376688	-0.0636238	-0.299624	0.389362	-0.126591	0	0	-0.328398	0.0330247	0.138685	-0.237953	-0.443735	0.226645	0.768681	0.86747	0	0	0.0520919	-0.561717	0.628862	0.583353	1.20604	0	0
0.59	2.83392	1.51799	1.781	0.780471	1.09233	1.04178	-0.148945	-0.0218886	-0.0769992	0.0229283	-0.0176963	0	0	0.375667	-0.0591831	-0.311694	0.312097	-0.144244	0	0	-0.326797	0.0318549	0.142443	-0.23868	-0.444503	0.224693	0.771797	0.866495	0	0	0.0528432	-0.561187	0.632137	0.579965	1.20441	0	0
0.6	3.02139	1.52733	1.59097	0.779879	1.07948	1.04166	-0.176437	0.00536714	-0.083986	0.0141917	-0.0185471	0	0	0.361313	-0.0627739	-0.323131	0.235729	-0.164669	0	0	-0.340382	0.04044	0.147686	-0.235554	-0.44826	0.224476	0.774436	0.863702	0	0	0.0585081	-0.55641	0.635842	0.572784	1.2026	0	0
0.61	3.07526	1.52266	1.53405	0.7794	1.0667	1.03913	-0.18727	0.00611286	-0.0885251	0.00932888	-0.0182251	0	0	0.362845	-0.0568888	-0.326621	0.169119	-0.174491	0	0	-0.337432	0.0407524	0.151151	-0.238069	-0.449424	0.221199	0.779691	0.861226	0	0	0.0586785	-0.555833	0.636539	0.571059	1.20083	0	0
0.62	3.12693	1.517	1.48015	0.779012	1.05372	1.03638	-0.197426	0.0072587	-0.0910873	0.00485834	-0.0174442	0	0	0.365795	-0.0507336	-0.324579	0.109412	-0.179584	0	0	-0.332943	0.041609	0.15358	-0.24015	-0.450032	0.218911	0.783588	0.859598	0	0	0.0577953	-0.555911	0.636596	0.569752	1.19952	0	0
0.63	-3.11057	1.5114	1.43341	0.778706	1.0405	1.03356	-0.207992	0.00865518	-0.0925068	0.000828008	-0.0168771	0	0	0.369079	-0.0444179	-0.318455	0.0564128	-0.183648	0	0	-0.328225	0.0427271	0.154877	-0.241904	-0.449933	0.217046	0.786525	0.857439	0	0	0.056248	-0.556521	0.635684	0.568797	1.19844	0	0
0.64	-3.07717	1.5059	1.39921	0.77842	1.02711	1.03068	-0.217948	0.00973554	-0.0959292	0	-0.0168172	0	0	0.372881	-0.0378939	-0.311657	0.0109798	-0.188831	0	0	-0.323384	0.0434159	0.155616	-0.243395	-0.449371	0.215694	0.788934	0.854335	0	0	0.0541099	-0.557507	0.63361	0.568019	1.19758	0	0
0.65	-3.01823	1.50227	1.33941	0.778046	1.01357	1.0282	-0.228436	0.0125818	-0.0975999	0.000338617	-0.0170145	0	0	0.376515	-0.0343719	-0.310978	0	-0.188522	0	0	-0.321562	0.0454292	0.156839	-0.243384	-0.448716	0.215569	0.790002	0.8521	0	0	0.0524278	-0.558467	0.630833	0.567084	1.19684	0	0
0.66	-2.97425	1.49952	1.29493	0.777702	0.999835	1.02583	-0.238597	0.0144891	-0.101386	0.00479938	-0.0178064	0	0	0.380358	-0.029995	-0.312439	0	-0.180838	0	0	-0.320416	0.0462883	0.157335	-0.242979	-0.447511	0.216008	0.790479	0.84772	0	0	0.0500925	-0.559563	0.625285	0.566263	1.19579	0	0
0.67	-2.94907	1.498	1.26918	0.777251	0.985861	1.02373	-0.24784	0.0148009	-0.108829	0.0131697	-0.0185018	0	0	0.383858	-0.0247195	-0.316386	0	-0.168198	0	0	-0.32009	0.044842	0.157454	-0.241017	-0.444787	0.217858	0.788283	0.842963	0	0	0.0479956	-0.561543	0.61967	0.565204	1.19543	0	0
0.68	-2.92628	1.49854	1.2458	0.776829	0.971697	1.02204	-0.257806	0.0136344	-0.115006	0.0255093	-0.0197227	0	0	0.386038	-0.0197047	-0.321601	0	-0.156678	0	0	-0.322038	0.0422839	0.15778	-0.238341	-0.441437	0.21997	0.784946	0.838465	0	0	0.0467318	-0.563874	0.614705	0.564399	1.19464	0	0
0.69	-2.89123	1.50095	1.20941	0.776374	0.957355	1.02079	-0.267527	0.012001	-0.119846	0.0421961	-0.021847	0	0	0.386622	-0.016434	-0.327808	0	-0.146801	0	0	-0.326461	0.0394534	0.159402	-0.234955	-0.438025	0.222733	0.780423	0.833239	0	0	0.0461609	-0.566257	0.609886	0.564227	1.19359	0	0
0.7	-2.8524	1.50486	1.16948	0.775827	0.942637	1.01987	-0.277525	0.00956684	-0.125337	0.0623927	-0.0260063	0	0	0.385458	-0.0138436	-0.333212	0	-0.139621	0	0	-0.331947	0.0356334	0.161158	-0.231058	-0.433722	0.226647	0.773879	0.826319	0	0	0.0452844	-0.569544	0.60482	0.56526	1.19285	0	0
0.71	-2.8127	1.509	1.12908	0.775224	0.927525	1.01912	-0.286333	0.00630723	-0.131794	0.0864736	-0.0328573	0	0	0.384838	-0.0123915	-0.33942	0.0240293	-0.132192	0	0	-0.336551	0.0311506	0.162613	-0.22683	-0.428608	0.232366	0.76492	0.818747	0	0	0.0435981	-0.573845	0.600248	0.567297	1.19253	0	0
0.72	-2.77195	1.51292	1.08796	0.774596	0.911935	1.01839	-0.293511	0.00224272	-0.137699	0.114196	-0.0416105	0	0	0.383457	-0.0113813	-0.341933	0.061723	-0.124339	0	0	-0.339416	0.0264184	0.16377	-0.222997	-0.422647	0.238811	0.753732	0.81236	0	0	0.040742	-0.579313	0.597204	0.570121	1.19247	0	0
0.73	-2.73107	1.51676	1.04636	0.773942	0.895826	1.01769	-0.298519	-0.0031338	-0.142028	0.146761	-0.052446	0	0	0.380051	-0.00946209	-0.339406	0.0987375	-0.116918	0	0	-0.340435	0.0212408	0.164866	-0.219045	-0.415921	0.246503	0.739565	0.806668	0	0	0.0362496	-0.585624	0.595065	0.573242	1.19213	0	0
0.74	-2.70528	1.51958	1.01933	0.773367	0.879415	1.01696	-0.298453	-0.0104548	-0.145369	0.187123	-0.0652139	0	0	0.376349	-0.0054807	-0.331139	0.12877	-0.118839	0	0	-0.338578	0.0154932	0.1656	-0.214566	-0.40883	0.255835	0.722579	0.800926	0	0	0.0302756	-0.59192	0.593084	0.575555	1.19105	0	0
0.75	-2.70932	1.5208	1.02234	0.772989	0.862954	1.01625	-0.291813	-0.0197148	-0.145103	0.235683	-0.0811927	0	0	0.374871	0.00073523	-0.317232	0.149001	-0.138309	0	0	-0.333504	0.00920123	0.165027	-0.209011	-0.401461	0.267225	0.703005	0.794899	0	0	0.0232715	-0.597911	0.590881	0.576578	1.18891	0	0
0.76	-2.7434	1.51969	1.05631	0.772795	0.846592	1.01564	-0.279893	-0.0293244	-0.131016	0.286862	-0.106138	0	0	0.377509	0.00669219	-0.300145	0.164805	-0.16733	0	0	-0.324748	0.00272778	0.162361	-0.20129	-0.393953	0.283058	0.680518	0.787026	0	0	0.0149951	-0.603905	0.587976	0.576761	1.18459	0	0
0.77	-2.80884	1.5142	1.12181	0.77274	0.830604	1.01495	-0.260862	-0.0394381	-0.0979495	0.338356	-0.138485	0	0	0.386614	0.00935457	-0.279943	0.18619	-0.185464	0	0	-0.311235	-0.00321579	0.160042	-0.194045	-0.38663	0.298888	0.658411	0.778245	0	0	0.00789134	-0.608522	0.585296	0.574261	1.17886	0	0
0.78	-2.87529	1.50588	1.18897	0.772898	0.81489	1.01422	-0.235695	-0.0490052	-0.0582826	0.391323	-0.179634	0	0	0.399204	0.00948137	-0.258164	0.216933	-0.18673	0	0	-0.294847	-0.00790912	0.158116	-0.188827	-0.380399	0.313306	0.63863	0.7693	0	0	0.00190834	-0.612244	0.583642	0.571032	1.17264	0	0
0.79	-2.93542	1.4982	1.2517	0.773455	0.799371	1.0137	-0.206338	-0.0577529	-0.0317838	0.449683	-0.229926	0	0	0.411211	0.0107091	-0.235213	0.254971	-0.175166	0	0	-0.279842	-0.0117712	0.155584	-0.185784	-0.375958	0.325328	0.622613	0.760415	0	0	-0.00113316	-0.615376	0.585488	0.567141	1.16754	0	0
0.8	-2.99358	1.49173	1.31336	0.774253	0.784199	1.01353	-0.175372	-0.0660546	-0.00864631	0.507893	-0.288556	0	0	0.421814	0.014188	-0.21296	0.29627	-0.157736	0	0	-0.267651	-0.0155533	0.153419	-0.183824	-0.373063	0.335054	0.60973	0.751855	0	0	8.09733e-05	-0.618034	0.591597	0.56231	1.1642	0	0
0.81	-3.04684	1.48733	1.36956	0.774965	0.769363	1.01375	-0.144871	-0.073523	0.0155578	0.564132	-0.356545	0	0	0.429093	0.0192022	-0.196225	0.335865	-0.137419	0	0	-0.259175	-0.0198181	0.15291	-0.181725	-0.371478	0.344701	0.598632	0.742844	0	0	0.00499038	-0.621231	0.601519	0.558065	1.16087	0	0
0.82	-3.09474	1.48699	1.41846	0.775401	0.754834	1.01444	-0.11676	-0.0799168	0.0403869	0.617855	-0.425357	0	0	0.42968	0.0246007	-0.189246	0.36946	-0.117772	0	0	-0.256963	-0.0249544	0.155442	-0.18096	-0.371579	0.350819	0.592711	0.736004	0	0	0.0126467	-0.625426	0.61218	0.556739	1.15662	0	0
0.83	2.97914	1.46468	1.62637	0.77497	0.74059	1.01081	-0.0757417	-0.121003	0.0726148	0.631497	-0.507587	0	0	0.45509	0.0454127	-0.18424	0.404725	-0.0934662	0	0	-0.223734	-0.0474064	0.156129	-0.192958	-0.366843	0.347062	0.595842	0.735747	0	0	0.00750202	-0.642978	0.622415	0.57047	1.14692	0	0
0.84	2.91293	1.46381	1.68913	0.774916	0.726426	1.01124	-0.0447264	-0.132195	0.0922222	0.676181	-0.592945	0	0	0.44927	0.0529816	-0.189511	0.426268	-0.0762187	0	0	-0.221585	-0.0563338	0.162889	-0.197956	-0.368699	0.343019	0.600273	0.735638	0	0	0.0153222	-0.650766	0.63608	0.57517	1.13808	0	0
0.85	2.85483	1.46589	1.74292	0.774736	0.712464	1.01213	-0.0171655	-0.140015	0.108944	0.715608	-0.671964	0	0	0.436806	0.0591679	-0.197279	0.442123	-0.0597243	0	0	-0.223651	-0.0636204	0.170334	-0.204184	-0.372395	0.335052	0.609945	0.737312	0	0	0.0237507	-0.657581	0.646885	0.580215	1.13119	0	0
0.86	2.81197	1.4713	1.78258	0.774645	0.698685	1.01352	0.00611258	-0.14634	0.118503	0.753376	-0.698132	0	0	0.418406	0.0635999	-0.205439	0.452661	-0.0476519	0	0	-0.229594	-0.0674996	0.175138	-0.209826	-0.378511	0.326981	0.623457	0.739235	0	0	0.0300621	-0.662838	0.650447	0.585902	1.12802	0	0
0.87	2.78251	1.47742	1.80728	0.77444	0.684882	1.01512	0.0293875	-0.148232	0.129601	0.79344	-0.698132	0	0	0.397329	0.0659092	-0.215525	0.457976	-0.035899	0	0	-0.235328	-0.0690628	0.180331	-0.216122	-0.385709	0.316652	0.638875	0.742832	0	0	0.0340305	-0.666314	0.649742	0.5912	1.12698	0	0
0.88	2.76561	1.48231	1.81891	0.774034	0.67105	1.01661	0.0489677	-0.152088	0.145572	0.854861	-0.621419	0	0	0.376185	0.0668785	-0.225677	0.458274	-0.0232155	0	0	-0.237968	-0.0692856	0.184564	-0.2232	-0.391923	0.303224	0.654486	0.751339	0	0	0.0337472	-0.668954	0.641888	0.596841	1.12898	0	0
